<?xml version="1.0" encoding="utf-8"?>
<!-- Generator: Adobe Illustrator 27.5.0, SVG Export Plug-In . SVG Version: 6.00 Build 0)  -->
<svg version="1.1" id="Capa_1" xmlns="http://www.w3.org/2000/svg" xmlns:xlink="http://www.w3.org/1999/xlink" x="0px" y="0px"
	 viewBox="0 0 65.7 63.4" style="enable-background:new 0 0 65.7 63.4;" xml:space="preserve">
<style type="text/css">
	.st0{fill:url(#SVGID_1_);}
	.st1{fill:url(#SVGID_00000128468749732889515070000017331649759952767137_);}
	.st2{fill:url(#SVGID_00000171721365846963296300000016328500073207974331_);}
	.st3{fill:url(#SVGID_00000001647354845087757060000013155747325367189636_);}
	.st4{fill:url(#SVGID_00000027581268024430167090000004546210366146825904_);}
	.st5{fill:url(#SVGID_00000019658606271736480040000010516825308489680812_);}
	.st6{fill:url(#SVGID_00000125603521370686762590000002200511537473618582_);}
</style>
<g>
	<linearGradient id="SVGID_1_" gradientUnits="userSpaceOnUse" x1="21.7056" y1="31.3057" x2="58.1983" y2="31.3057">
		<stop  offset="0" style="stop-color:#00AEE6"/>
		<stop  offset="1" style="stop-color:#1377BB"/>
	</linearGradient>
	<path class="st0" d="M56.5,26.6V15.8c0-1.1-0.9-1.9-2.1-1.9c-0.4,0-0.8,0.1-1.1,0.3v-2.5c0-1.1-0.9-1.9-2.1-1.9
		c-0.3,0-0.6,0.1-0.9,0.2V8.8c0-1.1-0.9-1.9-2.1-1.9c-1.1,0-2.1,0.9-2.1,1.9v0.8c-0.2-0.1-0.5-0.1-0.7-0.1c-1.1,0-1.9,0.9-1.9,1.9
		v10.4l-1-2.2c-0.2-0.4-0.5-0.7-1-0.9c-0.6-0.2-1.4-0.2-2.1,0.1c-1.4,1-1.3,2.7-0.8,4L44,33h-2.2v3.1H42c-0.1,0-0.1,0-0.2,0.1
		l-10.2,5.3v-2.2h-3.1v1.4h1.7v13.6h-8l0,0.1c-0.1,0.4-0.2,0.7-0.4,1l-0.1,0.3h10v-2.6l6.4,0.8h10.8c1.1,0,1.9-0.9,1.9-2.1
		c0-0.4-0.1-0.8-0.3-1.1H53c1.1,0,1.9-0.9,1.9-2.1c0-0.3-0.1-0.6-0.2-0.9h1.1c1.1,0,1.9-0.9,1.9-2.1s-0.9-2.1-1.9-2.1h-0.8
		c0.1-0.2,0.1-0.5,0.1-0.7c0-1.1-0.9-1.9-1.9-1.9H42.9l2.2-1c0.4-0.2,0.7-0.5,0.9-1c0.2-0.6,0.2-1.4-0.1-2.1c-0.6-1-1.6-1.2-2.6-1.1
		v-1.4h13.6v8l0.1,0c0.4,0.1,0.7,0.2,1,0.4l0.3,0.1V33h-2.6L56.5,26.6z M44.6,38.6c0,0.1-0.1,0.2-0.2,0.2L39.6,41l0,1.5h13.7
		c0.3,0,0.5,0.2,0.5,0.5s-0.2,0.5-0.5,0.5H42.7v0.2h-0.3V45h13.4c0.3,0,0.5,0.3,0.5,0.7s-0.2,0.7-0.5,0.7H42.5V48H53
		c0.3,0,0.5,0.3,0.5,0.7s-0.2,0.7-0.5,0.7H42.5v1.9h6.4c0.3,0,0.5,0.3,0.5,0.7s-0.2,0.7-0.5,0.7l-10.7,0l-6.5-0.8v-8.7l10.7-5.6
		c0.1,0,1.5-0.7,2.1,0.2C44.7,38,44.7,38.3,44.6,38.6z M44.9,25.2V11.4c0-0.3,0.2-0.5,0.5-0.5s0.5,0.2,0.5,0.5V22h0.2v0.3h1.4V8.8
		c0-0.3,0.3-0.5,0.7-0.5c0.4,0,0.7,0.2,0.7,0.5v13.4h1.6V11.7c0-0.3,0.3-0.5,0.7-0.5c0.4,0,0.7,0.2,0.7,0.5v10.5h1.9v-6.4
		c0-0.3,0.3-0.5,0.7-0.5s0.7,0.2,0.7,0.5l0,10.7L54.2,33h-8.7L40,22.3c-0.1-0.2-0.6-1.6,0.2-2.1c0.3-0.1,0.7-0.2,0.9-0.1
		c0.1,0,0.2,0.1,0.2,0.2l2.2,4.9L44.9,25.2z"/>
	
		<linearGradient id="SVGID_00000168832547227686870960000017074170190084490380_" gradientUnits="userSpaceOnUse" x1="42.3135" y1="55.4209" x2="58.1983" y2="55.4209">
		<stop  offset="0" style="stop-color:#00AEE6"/>
		<stop  offset="1" style="stop-color:#1377BB"/>
	</linearGradient>
	<path style="fill:url(#SVGID_00000168832547227686870960000017074170190084490380_);" d="M56.9,50.8l-0.1,0v8.3H42.3v1.4h15.9V50.3
		l-0.3,0.1C57.6,50.6,57.3,50.7,56.9,50.8z"/>
	
		<linearGradient id="SVGID_00000058571784468359216070000003116872669318704792_" gradientUnits="userSpaceOnUse" x1="7.9209" y1="16.9014" x2="44.0327" y2="16.9014">
		<stop  offset="0" style="stop-color:#00AEE6"/>
		<stop  offset="1" style="stop-color:#1377BB"/>
	</linearGradient>
	<path style="fill:url(#SVGID_00000058571784468359216070000003116872669318704792_);" d="M9.8,19h0.8c-0.1,0.2-0.1,0.5-0.1,0.7
		c0,1.1,0.9,1.9,1.9,1.9h10.4l-2.2,1c-0.4,0.2-0.7,0.5-0.9,1c-0.2,0.6-0.2,1.4,0.1,2.1c0.6,0.9,1.4,1.2,2.3,1.2
		c0.6,0,1.2-0.1,1.7-0.4l10.2-5.3v2.2h3.1V22h-1.7V8.4h8l0-0.1c0.1-0.4,0.2-0.7,0.4-1L44,7h-10v2.6l-6.4-0.8H16.8
		c-1.1,0-1.9,0.9-1.9,2.1c0,0.4,0.1,0.8,0.3,1.1h-2.5c-1.1,0-1.9,0.9-1.9,2.1c0,0.3,0.1,0.6,0.2,0.9H9.8c-1.1,0-1.9,0.9-1.9,2.1
		S8.8,19,9.8,19z M23.3,16.3v-1.6H12.7c-0.3,0-0.5-0.3-0.5-0.7s0.2-0.7,0.5-0.7h10.5v-1.9h-6.4c-0.3,0-0.5-0.3-0.5-0.7
		s0.2-0.7,0.5-0.7l10.7,0l6.5,0.8v8.7l-10.7,5.6c-0.1,0-1.5,0.7-2.1-0.2c-0.1-0.3-0.2-0.7-0.1-0.9c0-0.1,0.1-0.2,0.2-0.2l4.9-2.2
		l0-1.5H12.5c-0.3,0-0.5-0.2-0.5-0.5s0.2-0.5,0.5-0.5H23V19h0.3v-1.4H9.8c-0.3,0-0.5-0.3-0.5-0.7s0.2-0.7,0.5-0.7H23.3z"/>
	
		<linearGradient id="SVGID_00000163795652153330480630000016450143828327384724_" gradientUnits="userSpaceOnUse" x1="51.3565" y1="14.9092" x2="61.5406" y2="14.9092">
		<stop  offset="0" style="stop-color:#00AEE6"/>
		<stop  offset="1" style="stop-color:#1377BB"/>
	</linearGradient>
	<path style="fill:url(#SVGID_00000163795652153330480630000016450143828327384724_);" d="M51.4,7l0.1,0.3c0.1,0.3,0.3,0.6,0.4,1
		l0,0.1h8.3v14.5h1.4V7H51.4z"/>
	
		<linearGradient id="SVGID_00000075157187275034568890000017314256455180713602_" gradientUnits="userSpaceOnUse" x1="8.8116" y1="38.4619" x2="28.6805" y2="38.4619">
		<stop  offset="0" style="stop-color:#00AEE6"/>
		<stop  offset="1" style="stop-color:#1377BB"/>
	</linearGradient>
	<path style="fill:url(#SVGID_00000075157187275034568890000017314256455180713602_);" d="M23.5,52V41.6l1,2.2
		c0.2,0.4,0.5,0.7,1,0.9c0.6,0.2,1.4,0.2,2.1-0.1c1.4-1,1.3-2.7,0.8-4L23,30.4h2.2v-3.1h-1.4V29H10.2v-8l-0.1,0
		c-0.4-0.1-0.7-0.2-1-0.4l-0.3-0.1v10h2.6l-0.8,6.4v10.8c0,1.1,0.9,1.9,2.1,1.9c0.4,0,0.8-0.1,1.1-0.3v2.5c0,1.1,0.9,1.9,2.1,1.9
		c0.3,0,0.6-0.1,0.9-0.2v1.1c0,1.1,0.9,1.9,2.1,1.9c1.1,0,2.1-0.9,2.1-1.9v-0.8c0.2,0.1,0.5,0.1,0.7,0.1C22.6,53.9,23.5,53,23.5,52z
		 M22.1,38.2V52c0,0.3-0.2,0.5-0.5,0.5s-0.5-0.2-0.5-0.5V41.4h-0.2v-0.3h-1.4v13.4c0,0.3-0.3,0.5-0.7,0.5c-0.4,0-0.7-0.2-0.7-0.5
		V41.2h-1.6v10.6c0,0.3-0.3,0.5-0.7,0.5c-0.4,0-0.7-0.2-0.7-0.5V41.2h-1.9v6.4c0,0.3-0.3,0.5-0.7,0.5S12,47.9,12,47.6l0-10.7
		l0.8-6.5h8.7l5.6,10.7c0.1,0.2,0.6,1.6-0.2,2.1c-0.3,0.1-0.7,0.2-0.9,0.1c-0.1,0-0.2-0.1-0.2-0.2l-2.2-4.9L22.1,38.2z"/>
	
		<linearGradient id="SVGID_00000162342316852487645580000004653485046476885408_" gradientUnits="userSpaceOnUse" x1="8.8116" y1="7.9902" x2="24.6963" y2="7.9902">
		<stop  offset="0" style="stop-color:#00AEE6"/>
		<stop  offset="1" style="stop-color:#1377BB"/>
	</linearGradient>
	<path style="fill:url(#SVGID_00000162342316852487645580000004653485046476885408_);" d="M10.1,12.6l0.1,0V4.3h14.5V2.9H8.8v10.2
		L9.1,13C9.4,12.8,9.7,12.7,10.1,12.6z"/>
	
		<linearGradient id="SVGID_00000148627536587607680710000009431302323047371658_" gradientUnits="userSpaceOnUse" x1="4.1978" y1="47.7754" x2="14.3828" y2="47.7754">
		<stop  offset="0" style="stop-color:#00AEE6"/>
		<stop  offset="1" style="stop-color:#1377BB"/>
	</linearGradient>
	<path style="fill:url(#SVGID_00000148627536587607680710000009431302323047371658_);" d="M13.9,54.5l0-0.1H5.6V39.8H4.2v15.9h10.2
		l-0.1-0.3C14.1,55.1,14,54.8,13.9,54.5z"/>
</g>
</svg>
